<svg width="25" height="24" fill="none" xmlns="http://www.w3.org/2000/svg"><path fill-rule="evenodd" clip-rule="evenodd" d="M12.4 4c-1.952 0-3.752.161-5.196.352a2.811 2.811 0 0 0-2.452 2.452A40.09 40.09 0 0 0 4.4 12c0 1.952.16 3.752.352 5.196a2.811 2.811 0 0 0 2.452 2.452c1.444.191 3.244.352 5.196.352 1.952 0 3.752-.161 5.196-.352a2.81 2.81 0 0 0 2.452-2.452c.19-1.444.352-3.244.352-5.196 0-1.952-.161-3.752-.352-5.196a2.811 2.811 0 0 0-2.452-2.452A40.094 40.094 0 0 0 12.4 4ZM6.942 2.369a4.81 4.81 0 0 0-4.173 4.173c-.2 1.51-.37 3.4-.37 5.458 0 2.059.17 3.948.37 5.458a4.81 4.81 0 0 0 4.173 4.173c1.51.2 3.4.369 5.458.369 2.059 0 3.948-.17 5.458-.369a4.81 4.81 0 0 0 4.173-4.173c.2-1.51.369-3.4.369-5.458 0-2.059-.17-3.948-.37-5.458a4.81 4.81 0 0 0-4.172-4.173c-1.51-.2-3.4-.369-5.458-.369-2.059 0-3.948.17-5.458.369Z" fill="#B1B5C4"/><path fill-rule="evenodd" clip-rule="evenodd" d="M12.4 17a1 1 0 0 0 1-1v-3h3a1 1 0 1 0 0-2h-3V8a1 1 0 1 0-2 0v3h-3a1 1 0 1 0 0 2h3v3a1 1 0 0 0 1 1Z" fill="#B1B5C4"/></svg>