<svg width="16" height="16" fill="none" xmlns="http://www.w3.org/2000/svg"><path fill-rule="evenodd" clip-rule="evenodd" d="M10.667 3.333H5.334A.667.667 0 0 0 4.667 4v2.667a3.333 3.333 0 1 0 6.667 0V4a.667.667 0 0 0-.667-.667ZM5.334 2a2 2 0 0 0-2 2v2.667a4.667 4.667 0 1 0 9.333 0V4a2 2 0 0 0-2-2H5.334Z" fill="#FCFCFD"/><path fill-rule="evenodd" clip-rule="evenodd" d="M.667 5.333a2 2 0 0 1 2-2h2v5.334H3.333A2.667 2.667 0 0 1 .667 6v-.667Zm2-.666h.666v2.667A1.333 1.333 0 0 1 2 6v-.667c0-.368.298-.666.667-.666ZM15.333 5.333a2 2 0 0 0-2-2h-2v5.334h1.333A2.667 2.667 0 0 0 15.333 6v-.667Zm-2-.666h-.667v2.667C13.403 7.333 14 6.736 14 6v-.667a.667.667 0 0 0-.667-.666Z" fill="#FCFCFD"/><path d="M8 10a.667.667 0 0 0-.667.667v2H6A.667.667 0 1 0 6 14h4a.667.667 0 0 0 0-1.333H8.667v-2A.667.667 0 0 0 8 10Z" fill="#FCFCFD"/></svg>